<?xml version="1.0" standalone="no"?><!DOCTYPE svg PUBLIC "-//W3C//DTD SVG 1.1//EN" "http://www.w3.org/Graphics/SVG/1.1/DTD/svg11.dtd"><svg t="1600405600326" class="icon" viewBox="0 0 1024 1024" version="1.1" xmlns="http://www.w3.org/2000/svg" p-id="1180" xmlns:xlink="http://www.w3.org/1999/xlink" width="200" height="200"><defs><style type="text/css"></style></defs><path d="M851.2 320c-25.6 0-51.2 6.4-70.4 25.6L595.2 204.8c12.8-12.8 12.8-38.4 12.8-57.6C608 64 544 0 460.8 0 384 0 313.6 64 313.6 147.2c0 38.4 12.8 76.8 38.4 102.4L230.4 435.2c-12.8-6.4-32-12.8-51.2-12.8-83.2 0-147.2 64-147.2 147.2s64 147.2 147.2 147.2c38.4 0 76.8-19.2 102.4-44.8l128 76.8c-12.8 25.6-12.8 51.2-12.8 76.8 0 108.8 89.6 198.4 198.4 198.4s198.4-89.6 198.4-198.4S704 627.2 595.2 627.2c-57.6 0-108.8 25.6-147.2 70.4L320 620.8c6.4-12.8 6.4-32 6.4-51.2 0-38.4-12.8-76.8-38.4-102.4l121.6-185.6c19.2 6.4 32 12.8 51.2 12.8 38.4 0 70.4-12.8 96-38.4l185.6 140.8c-6.4 12.8-6.4 25.6-6.4 38.4 0 64 51.2 115.2 115.2 115.2s115.2-51.2 115.2-115.2S915.2 320 851.2 320z m-256 371.2c70.4 0 134.4 57.6 134.4 134.4s-64 134.4-134.4 134.4-134.4-57.6-134.4-134.4 57.6-134.4 134.4-134.4z m-416-38.4c-44.8 0-83.2-38.4-83.2-83.2s38.4-83.2 83.2-83.2 83.2 38.4 83.2 83.2-38.4 83.2-83.2 83.2z m281.6-422.4c-44.8 0-83.2-38.4-83.2-83.2S416 64 460.8 64c51.2 0 83.2 38.4 83.2 83.2S512 230.4 460.8 230.4z" p-id="1181" fill="#1296db"></path></svg>