<?xml version="1.0" standalone="no"?><!DOCTYPE svg PUBLIC "-//W3C//DTD SVG 1.1//EN" "http://www.w3.org/Graphics/SVG/1.1/DTD/svg11.dtd"><svg t="1602814320531" class="icon" viewBox="0 0 1024 1024" version="1.1" xmlns="http://www.w3.org/2000/svg" p-id="2312" data-spm-anchor-id="a313x.7781069.0.i0" width="289" height="289" xmlns:xlink="http://www.w3.org/1999/xlink"><defs><style type="text/css"></style></defs><path d="M512 119.21280031c-45.70879969 0-89.42080031 7.4688-131.24479969 22.39999969a385.13920031 385.13920031 0 0 0-113.84960062 63.4752l551.9808 552.0768c27.4816003-34.13759999 48.66559969-72.00640031 63.55840032-113.88160031 14.92480031-41.7343997 22.37440031-85.6128 22.3360003-131.21919938 0-53.2032-10.368-104.14720031-31.18720031-152.55040032-20.80000031-48.54400031-48.68479969-90.27839999-83.67359999-125.35039968-35.0016-34.944-76.78720031-62.94400031-125.28640032-83.616-48.55039969-20.80000031-99.39199969-31.2-152.56959938-31.2l-0.06400031-0.1344z m245.14560001 699.69919969L205.17120031 266.8352c-27.30880031 34.39999969-48.41599969 72.40960031-63.42400031 114.2784-15.04000031 41.8752-22.52800031 85.4784-22.52800031 130.95040031 0 53.07520031 10.3872 104.01919969 31.2 152.55679969 20.78719969 48.40960031 48.672 90.27839999 83.6736 125.21599969 35.0016 35.07199969 76.77439969 62.94400031 125.31200062 83.74400062 48.52480031 20.80000031 99.35359969 31.20640031 152.544 31.20639938 45.696 0 89.4144-7.4688 131.232-22.39999969 41.80480032-14.8032 79.776-36.00640031 113.84319938-63.61600031l0.12800062 0.14080031zM512 32c65.24160001 0 127.488 12.672 186.67519969 38.00320031 59.18080031 25.20319969 110.19520031 59.34079969 153.0624 102.28479938 42.8544 42.80320031 76.94080031 93.87520031 102.27200062 153.08800031C979.37280031 384.57600031 992 446.72 992 511.93599969c0 65.34400031-12.62719969 127.48159969-37.99039969 186.68800031-25.33120031 59.2128-59.41759969 110.2848-102.27200062 153.08800031-42.86719969 42.94399969-93.88800001 76.94719969-153.0624 102.28479938C639.488 979.328 577.24160001 992 512 992c-65.24160001 0-127.46239969-12.672-186.63679969-38.00320031-59.21920031-25.344-110.22079969-59.34079969-153.1008-102.28479938-42.82879969-42.80320031-76.91519999-93.87520031-102.2592-153.08800031C44.65920031 639.42399969 32 577.28 32 511.93599969 32 446.72 44.6528 384.57600031 70.00320031 325.376c25.344-59.2128 59.43040032-110.2848 102.2592-153.08800031 42.88000031-42.94399969 93.88800001-77.08159969 153.1008-102.28479938C384.53760031 44.672 446.75839999 32 512 32z" p-id="2313" fill="#d81e06"></path></svg>