<?xml version="1.0" standalone="no"?><!DOCTYPE svg PUBLIC "-//W3C//DTD SVG 1.1//EN" "http://www.w3.org/Graphics/SVG/1.1/DTD/svg11.dtd"><svg t="1600391751927" class="icon" viewBox="0 0 1024 1024" version="1.1" xmlns="http://www.w3.org/2000/svg" p-id="2764" xmlns:xlink="http://www.w3.org/1999/xlink" width="200" height="200"><defs><style type="text/css"></style></defs><path d="M870.4 870.4c-197.485714 197.485714-526.628571 197.485714-724.114286 0S-51.2 343.771429 146.285714 146.285714s526.628571-197.485714 724.114286 0 204.8 526.628571 0 724.114286z" fill="#1afa29" p-id="2765" data-spm-anchor-id="a313x.7781069.0.i2" class=""></path><path d="M512 804.571429c160.914286 0 292.571429-131.657143 292.571429-292.571429S672.914286 219.428571 512 219.428571 219.428571 351.085714 219.428571 512s131.657143 292.571429 292.571429 292.571429z m0-109.714286C409.6 694.857143 329.142857 614.4 329.142857 512S409.6 329.142857 512 329.142857 694.857143 409.6 694.857143 512 614.4 694.857143 512 694.857143z" fill="#FFFFFF" p-id="2766"></path></svg>